<?xml version="1.0" encoding="UTF-8"?>
<svg version="1.1" xmlns="http://www.w3.org/2000/svg" width="2000" height="3295">
<path d="M0 0 C4.00750997 1.12111477 8.01491793 2.24259373 12.02230835 3.36413574 C13.15065063 3.67978863 14.2789929 3.99544151 15.44152737 4.32065964 C23.33618006 6.53038367 31.22380775 8.76195236 39.1015625 11.03125 C40.31421783 11.37991119 41.52687317 11.72857239 42.77627563 12.08779907 C46.04285124 13.02723632 49.30903813 13.96801742 52.5750885 14.90927887 C54.67397481 15.51411303 56.77295394 16.11862424 58.87194824 16.7230835 C89.87859341 25.65350055 120.85784008 34.67771661 151.83576202 43.70715523 C171.51609145 49.44353389 191.19967753 55.16869681 210.88417053 60.89076996 C213.62782591 61.68832146 216.3714691 62.4859149 219.1151123 63.2835083 C244.28691346 70.60085485 269.4622918 77.90577235 294.64093018 85.19955444 C320.02283509 92.55234962 345.39831465 99.92715688 370.77257156 107.3062973 C395.82398705 114.59152643 420.87822275 121.86686028 445.9375 129.125 C471.30657704 136.47286977 496.66745849 143.84861732 522.02516937 151.23561096 C545.69945779 158.13211034 569.37767311 165.01477999 593.0625 171.875 C618.69155215 179.29858462 644.31598803 186.7379322 669.9375 194.1875 C671.75325515 194.71542378 673.56901036 195.24334736 675.38476562 195.77127075 C689.18196345 199.78280627 702.97896687 203.79501026 716.7759552 207.80726624 C730.53803471 211.80936197 744.30018981 215.81119759 758.0625 219.8125 C758.96279308 220.074259 759.86308617 220.33601799 760.79066086 220.60570908 C786.73776942 228.14970007 812.68835017 235.68159348 838.64285278 243.20010376 C864.02411827 250.55271078 889.39895467 257.92734301 914.77257156 265.3062973 C939.82398705 272.59152643 964.87822275 279.86686028 989.9375 287.125 C1015.30657704 294.47286977 1040.66745849 301.84861732 1066.02516937 309.23561096 C1089.69945749 316.13211026 1113.37762663 323.01494101 1137.0625 329.875 C1163.97026896 337.6685347 1190.87185568 345.48318136 1217.77115631 353.30589294 C1242.82303661 360.59128064 1267.87775154 367.8667238 1292.9375 375.125 C1318.30657704 382.47286977 1343.66745849 389.84861732 1369.02516937 397.23561096 C1392.69945749 404.13211026 1416.37762663 411.01494101 1440.0625 417.875 C1466.97026896 425.6685347 1493.87185568 433.48318136 1520.77115631 441.30589294 C1545.82303661 448.59128064 1570.87775154 455.8667238 1595.9375 463.125 C1621.29735104 470.47019756 1646.64908293 477.84301392 1671.99749756 485.22757721 C1699.09594455 493.12193272 1726.20038862 500.99532822 1753.31156826 508.84584808 C1756.02050594 509.63027958 1758.72940596 510.41484108 1761.43831062 511.1993866 C1763.21796585 511.71470869 1764.99770513 512.2297405 1766.77745056 512.74475098 C1778.52337646 516.14596525 1790.26059638 519.57600728 1802 523 C1802 572.83 1802 622.66 1802 674 C1805.3 674.66 1808.6 675.32 1812 676 C1815.23339112 676.81643966 1818.44990248 677.6545372 1821.66552734 678.53442383 C1823.02868828 678.90320396 1823.02868828 678.90320396 1824.41938782 679.2794342 C1827.39257574 680.08498492 1830.36434137 680.89562968 1833.3359375 681.70703125 C1835.42280335 682.27518604 1837.50968721 682.84327471 1839.59658813 683.41130066 C1843.95961053 684.59990413 1848.32182478 685.79142477 1852.68359375 686.98461914 C1858.24465652 688.50531666 1863.80852035 690.0154803 1869.37315941 691.52303028 C1873.68147505 692.69209015 1877.98777596 693.86844036 1882.29356766 695.04675865 C1884.34275098 695.60628016 1886.39264364 696.16321105 1888.44327927 696.71738625 C1912.57551556 703.2459245 1934.26965213 711.58136146 1948 734 C1955.49452976 747.30147483 1958.47351738 760.68915008 1958.37719816 775.95309287 C1958.38369493 777.8017198 1958.38369493 777.8017198 1958.39032295 779.68769273 C1958.3992594 783.08486508 1958.39492308 786.48153321 1958.38479719 789.87866939 C1958.37707739 793.59714812 1958.38692064 797.31558973 1958.3944377 801.03406319 C1958.40524984 807.56829182 1958.40495779 814.10244648 1958.39736467 820.63667855 C1958.3860519 830.41870411 1958.39207877 840.20066735 1958.40142866 849.98269225 C1958.41685488 866.65573805 1958.41803764 883.32875775 1958.41144943 900.00180817 C1958.40482147 916.89716144 1958.40469698 933.79249606 1958.41249657 950.68784904 C1958.41298457 951.75515892 1958.41347256 952.82246879 1958.41397535 953.92212139 C1958.41598354 958.26914653 1958.41803664 962.61617165 1958.42014709 966.96319674 C1958.44154824 1011.09106513 1958.44360149 1055.21891974 1958.43809005 1099.34679202 C1958.43733434 1105.44434414 1958.43660672 1111.54189627 1958.43590808 1117.6394484 C1958.43569944 1119.45611769 1958.43569944 1119.45611769 1958.43548659 1121.30948736 C1958.43253461 1148.14664555 1958.43554678 1174.98380208 1958.43980437 1201.82095997 C1958.44038652 1205.49365705 1958.44095537 1209.16635414 1958.44152 1212.83905124 C1958.44303494 1222.68423343 1958.44456185 1232.52941563 1958.44611301 1242.37459782 C1958.45687028 1311.10517713 1958.46157097 1379.83575491 1958.45364285 1448.56633472 C1958.45342039 1450.50981851 1958.45342039 1450.50981851 1958.45319343 1452.49256459 C1958.45153442 1466.94062996 1958.44978484 1481.38869532 1958.44800042 1495.83676068 C1958.4478394 1497.14121801 1958.44767837 1498.44567534 1958.44751247 1499.78966168 C1958.44620468 1510.37650975 1958.44620468 1510.37650975 1958.44555128 1515.61565936 C1958.43515903 1599.06091955 1958.4429275 1682.50615865 1958.46655273 1765.95141602 C1958.47249608 1786.97822217 1958.47838761 1808.00502834 1958.48396206 1829.0318346 C1958.48430583 1830.32651532 1958.4846496 1831.62119604 1958.48500379 1832.9551095 C1958.49553014 1872.8528408 1958.50112512 1912.75057034 1958.5015192 1952.64830303 C1958.50153199 1953.90076902 1958.50154477 1955.15323501 1958.50155794 1956.44365452 C1958.50178622 1983.93708357 1958.5007802 2011.43051247 1958.49864888 2038.92394144 C1958.49789411 2048.76130571 1958.49721591 2058.59866999 1958.49656873 2068.43603427 C1958.49640604 2070.88334046 1958.49623838 2073.33064666 1958.49606572 2075.77795286 C1958.49334381 2114.78369542 1958.50190186 2153.7894252 1958.51591982 2192.79516501 C1958.53032266 2233.16783026 1958.52988356 2273.54047115 1958.5125451 2313.91313557 C1958.5107409 2318.24807294 1958.50900071 2322.58301034 1958.50731087 2326.91794777 C1958.50689037 2327.98182081 1958.50646987 2329.04569385 1958.50603662 2330.14180547 C1958.4997376 2346.9907697 1958.5068448 2363.83970049 1958.51952007 2380.68866001 C1958.53169932 2397.25420888 1958.52960359 2413.81970495 1958.51229975 2430.38524982 C1958.50257927 2440.09790605 1958.5037684 2449.8104123 1958.52112973 2459.52305872 C1958.53156956 2465.97633289 1958.52746315 2472.4294929 1958.51161324 2478.88275576 C1958.50303655 2482.5391755 1958.50053514 2486.19529871 1958.51599697 2489.85170257 C1958.61524302 2515.08179075 1956.60067751 2536.42012984 1939 2556 C1938.48179688 2556.61101563 1937.96359375 2557.22203125 1937.4296875 2557.8515625 C1928.56693271 2567.60504641 1916.45620831 2573.40657263 1904 2577 C1903.17371094 2577.24492187 1902.34742188 2577.48984375 1901.49609375 2577.7421875 C1883.64471221 2582.15217347 1865.4796964 2577.1574332 1848.2890625 2572.32421875 C1846.98722032 2571.96271566 1845.6852284 2571.60175149 1844.38310242 2571.24127197 C1841.592939 2570.46791928 1838.80365703 2569.6914958 1836.01504517 2568.91256714 C1829.13880479 2566.99231428 1822.25764076 2565.08980765 1815.37697029 2563.18550301 C1812.93467039 2562.50943515 1810.49253456 2561.83277672 1808.05039978 2561.15611267 C1790.34848889 2556.2541633 1772.62211634 2551.44283359 1754.89383316 2546.63730621 C1750.54323888 2545.45784865 1746.19288996 2544.27748685 1741.8425293 2543.09716797 C1740.10957366 2542.6270029 1738.37661773 2542.15683892 1736.6436615 2541.68667603 C1735.79172651 2541.4555373 1734.93979153 2541.22439857 1734.06204033 2540.98625565 C1731.50386764 2540.29223129 1728.94566908 2539.59830233 1726.38746643 2538.90438843 C1711.56792877 2534.88432232 1696.75142368 2530.85321047 1681.9375 2526.8125 C1680.68053314 2526.46965973 1679.42356628 2526.12681946 1678.12850952 2525.77359009 C1658.10801566 2520.31225806 1638.09106619 2514.83795992 1618.07421875 2509.36328125 C1616.81091169 2509.0177634 1615.54760464 2508.67224556 1614.24601555 2508.31625748 C1610.31741006 2507.2417701 1606.38880732 2506.1672727 1602.46020508 2505.09277344 C1597.70430997 2503.79200449 1592.94841415 2502.49123814 1588.1925168 2501.19047737 C1586.81354619 2500.81332122 1585.43457605 2500.43616337 1584.05560637 2500.05900383 C1540.12491788 2488.04360043 1496.19005834 2476.04359347 1452.25 2464.0625 C1451.57038869 2463.87719003 1450.89077738 2463.69188005 1450.19057178 2463.50095463 C1437.07768068 2459.92546781 1423.96470684 2456.35028445 1410.85165405 2452.77539062 C1391.56227083 2447.51668888 1372.27319967 2442.25684391 1352.984375 2436.99609375 C1352.30398068 2436.81052642 1351.62358637 2436.62495909 1350.92257404 2436.43376851 C1344.73790529 2434.7469921 1338.55324006 2433.06020277 1332.36857986 2431.37339497 C1322.74606363 2428.74894464 1313.1235277 2426.12456651 1303.50097656 2423.50024414 C1302.82032245 2423.31461186 1302.13966834 2423.12897959 1301.43838835 2422.93772209 C1298.00067643 2422.00016803 1294.56296418 2421.06261521 1291.12525177 2420.12506294 C1284.93766069 2418.43754766 1278.7500726 2416.75002142 1272.56248426 2415.06249607 C1269.12498963 2414.12499693 1265.68749481 2413.1874985 1262.25 2412.25 C1260.875 2411.875 1259.5 2411.5 1258.125 2411.125 C1257.1040625 2410.8465625 1257.1040625 2410.8465625 1256.0625 2410.5625 C1188 2392 1119.9375 2373.4375 587.81250441 2228.31250119 C586.43748972 2227.93749719 585.06247501 2227.56249322 583.6874603 2227.18748927 C580.25018508 2226.2500507 576.81290998 2225.31261166 573.37563515 2224.37517166 C567.1854512 2222.68693763 560.99526636 2220.99870688 554.80507672 2219.31049371 C551.36402838 2218.37203719 547.92298079 2217.43357792 544.48193359 2216.49511719 C543.80074675 2216.30934034 543.11955991 2216.12356349 542.41773105 2215.93215704 C532.84631703 2213.32178497 523.27494493 2210.7112593 513.70359969 2208.10063505 C507.56543019 2206.42642997 501.42724817 2204.7522708 495.2890625 2203.078125 C494.61307778 2202.89375413 493.93709306 2202.70938326 493.24062395 2202.51942539 C473.2000846 2197.05350709 453.15890176 2191.58995351 433.11727452 2186.12802553 C427.90238128 2184.70679734 422.68753398 2183.28540064 417.47271729 2181.8638916 C416.74018163 2181.66420949 416.00764598 2181.46452739 415.25291228 2181.25879431 C411.58251121 2180.2582715 407.91211633 2179.25772593 404.24172592 2178.257164 C397.23827172 2176.34802865 390.23473083 2174.43921259 383.23095703 2172.53125 C369.24987677 2168.72237916 355.27007719 2164.90889033 341.29308701 2161.0850296 C334.14855077 2159.13117556 327.00209939 2157.18457397 319.85364616 2155.24511504 C314.47083434 2153.78433162 309.08962488 2152.31774048 303.70948708 2150.8471396 C300.53269392 2149.97905194 297.35500223 2149.11453528 294.17579269 2148.25533295 C290.68234111 2147.31078948 287.19176687 2146.35623149 283.70166016 2145.39941406 C282.68998905 2145.12847679 281.67831795 2144.85753952 280.63599014 2144.57839203 C270.90360005 2141.88907287 261.62134698 2138.29037201 253 2133 C253 2132.34 253 2131.68 253 2131 C252.42894531 2130.7421875 251.85789062 2130.484375 251.26953125 2130.21875 C238.55560377 2123.39130529 230.47235231 2108.92613708 225.8663063 2095.7592001 C222.8813858 2085.49475258 222.45227929 2075.95699873 222.54589844 2065.31469727 C222.54702956 2063.48984807 222.5463879 2061.66499707 222.54412842 2059.84014893 C222.54299066 2054.93400524 222.5663463 2050.02826058 222.59442425 2045.12220883 C222.61959601 2039.97732192 222.62179225 2034.83242373 222.62652588 2029.68748474 C222.63890962 2019.96621398 222.67166836 2010.24512526 222.71192384 2000.5239343 C222.75678554 1989.44764401 222.77866466 1978.37134457 222.79870558 1967.29498589 C222.84040552 1944.52989006 222.91066721 1921.76495527 223 1899 C222.22844039 1898.81033126 221.45688078 1898.62066252 220.66194057 1898.42524624 C214.68759767 1896.94605122 208.74357023 1895.41529039 202.83813477 1893.68188477 C202.10693389 1893.46930558 201.37573301 1893.2567264 200.62237453 1893.03770542 C198.22809287 1892.34106651 195.83475427 1891.64124533 193.44140625 1890.94140625 C191.71962474 1890.4398034 189.99778065 1889.93841529 188.27587891 1889.43722534 C184.61185804 1888.37031183 180.9482389 1887.30203425 177.28494263 1886.2326355 C171.49197352 1884.54157273 165.69810731 1882.85359915 159.90405273 1881.16625977 C157.93903995 1880.59398294 155.97402836 1880.02170205 154.00901794 1879.44941711 C152.54649503 1879.02347983 152.54649503 1879.02347983 151.05442619 1878.58893776 C148.08623043 1877.72437223 145.11812286 1876.85950454 142.15003967 1875.99455261 C125.70156934 1871.2015206 109.24758033 1866.427703 92.79110718 1861.66223145 C88.59074678 1860.44581299 84.3906738 1859.22840444 80.19067383 1858.01074219 C78.81589273 1857.61218195 77.44111144 1857.21362237 76.06632996 1856.81506348 C75.39118032 1856.61933243 74.71603069 1856.42360138 74.02042198 1856.22193909 C64.56877861 1853.48186587 55.1165615 1850.74380881 45.66267681 1848.01147747 C39.75380673 1846.30357255 33.84585244 1844.59251985 27.9382019 1842.88040161 C25.50033185 1842.17452774 23.06212511 1841.46981552 20.62356567 1840.7663269 C17.31589015 1839.81200929 14.00937656 1838.85376846 10.703125 1837.89453125 C9.72462082 1837.61330414 8.74611664 1837.33207703 7.73796082 1837.04232788 C6.85667007 1836.78577423 5.97537933 1836.52922058 5.06738281 1836.26489258 C4.30065247 1836.04319901 3.53392212 1835.82150543 2.74395752 1835.59309387 C1 1835 1 1835 0 1834 C-0.09777878 1832.35259596 -0.12478365 1830.70096348 -0.12467116 1829.05066025 C-0.12820051 1827.4279151 -0.12820051 1827.4279151 -0.13180115 1825.77238722 C-0.12929228 1824.56582558 -0.1267834 1823.35926394 -0.1241985 1822.11613983 C-0.12547658 1820.84128203 -0.12675467 1819.56642424 -0.12807148 1818.25293439 C-0.13151199 1814.67602701 -0.12864093 1811.09914709 -0.12483745 1807.52224108 C-0.12179305 1803.63080401 -0.12452685 1799.73937047 -0.12654433 1795.84793332 C-0.12928997 1788.98860862 -0.12827547 1782.1292922 -0.12488318 1775.26996791 C-0.11982459 1765.00129878 -0.12050639 1754.73263562 -0.12234976 1744.4639657 C-0.12532238 1726.96740553 -0.12353476 1709.47084869 -0.11920547 1691.97428894 C-0.11483461 1674.23174056 -0.11263205 1656.48919391 -0.11310768 1638.74664497 C-0.11313637 1637.62798478 -0.11316507 1636.50932459 -0.11319463 1635.3567656 C-0.11335099 1629.65319103 -0.11354294 1623.94961645 -0.11374746 1618.24604188 C-0.11515674 1576.91234306 -0.11171799 1535.57864578 -0.10573006 1494.24494743 C-0.09981226 1453.29773895 -0.0959559 1412.35053113 -0.09487724 1371.40332222 C-0.09482563 1369.49746208 -0.09482563 1369.49746208 -0.09477296 1367.55309972 C-0.09445978 1355.94876419 -0.09417208 1344.34442866 -0.09391499 1332.74009313 C-0.09327551 1303.89002251 -0.09231613 1275.03995192 -0.09113979 1246.18988132 C-0.09105982 1244.21899389 -0.09105982 1244.21899389 -0.09097823 1242.20829054 C-0.08926019 1200.32090998 -0.08621839 1158.43352964 -0.08213139 1116.54614925 C-0.0820651 1115.86664346 -0.08199881 1115.18713766 -0.08193051 1114.48704079 C-0.07990977 1093.80179837 -0.0777914 1073.11655596 -0.07565394 1052.43131356 C-0.073289 1029.54041103 -0.0709407 1006.6495085 -0.06866455 983.75860596 C-0.06859605 983.07027969 -0.06852755 982.38195343 -0.06845698 981.67276879 C-0.06195804 916.3121126 -0.05814638 850.95145634 -0.05503077 785.59079991 C-0.05489862 782.82276468 -0.0547657 780.05472946 -0.05463275 777.28669424 C-0.05340936 751.81486895 -0.05221752 726.34304367 -0.05106533 700.87121838 C-0.05103469 700.19390671 -0.05100405 699.51659504 -0.05097248 698.81875878 C-0.05087972 696.76804133 -0.05078697 694.71732388 -0.05069422 692.66660643 C-0.04821781 637.91633303 -0.04547588 583.16605964 -0.04255217 528.41578626 C-0.04241293 525.80829878 -0.04227388 523.2008113 -0.04213501 520.59332383 C-0.03588007 403.17541554 -0.02654155 285.75750757 -0.01586914 168.33959961 C-0.01576921 167.23989356 -0.01566927 166.14018751 -0.01556631 165.00715703 C-0.01056561 110.00477134 -0.00539152 55.00238566 0 0 Z M66 79 C66 644.95 66 1210.9 66 1794 C77.67883784 1797.93361287 77.67883784 1797.93361287 89.44921875 1801.5168457 C90.53583848 1801.83096027 90.53583848 1801.83096027 91.64441013 1802.15142059 C93.99128495 1802.829097 96.33937416 1803.50245385 98.6875 1804.17578125 C100.37874066 1804.66334014 102.06989549 1805.15119684 103.76097107 1805.639328 C108.24879151 1806.93397663 112.73764611 1808.22500151 117.22675705 1809.51516724 C124.68847659 1811.66047999 132.14845695 1813.81184101 139.60873222 1815.96216965 C141.47708571 1816.50062325 143.34547997 1817.03893542 145.21391487 1817.57710648 C156.6618391 1820.87452837 168.10450591 1824.18879632 179.5358696 1827.54320335 C181.52178547 1828.12591832 183.50788827 1828.70799171 185.49404907 1829.28987122 C195.18149277 1832.12885807 195.18149277 1832.12885807 199.93041992 1833.53213501 C203.11766405 1834.47388108 206.30666808 1835.40942431 209.49609375 1836.34375 C210.41498886 1836.61752975 211.33388397 1836.89130951 212.28062439 1837.17338562 C213.11670731 1837.41716446 213.95279022 1837.6609433 214.81420898 1837.91210938 C215.53205063 1838.12395874 216.24989227 1838.33580811 216.98948669 1838.55407715 C219.30762155 1839.14435565 219.30762155 1839.14435565 223 1839 C223.0002442 1837.68973522 223.0004884 1836.37947044 223.00074001 1835.02950066 C223.00913181 1790.16672097 223.01841144 1745.30394149 223.02832031 1700.44116211 C223.02851985 1699.53737633 223.0287194 1698.63359056 223.02892498 1697.70241733 C223.05032992 1600.86391014 223.07757525 1504.02540669 223.11663818 1407.18690491 C223.11750436 1405.03594298 223.11837053 1402.88498105 223.1192367 1400.73401913 C223.13743543 1355.58509429 223.15645591 1310.43616984 223.1764257 1265.28724576 C223.18645626 1242.6075586 223.1963289 1219.92787139 223.20605225 1197.2481841 C223.2075199 1193.82703174 223.20899205 1190.40587938 223.2104644 1186.98472702 C223.2330976 1134.30172892 223.2523435 1081.61873225 223.26177979 1028.93572998 C223.26198275 1027.80293671 223.26218571 1026.67014344 223.26239483 1025.50302311 C223.26564666 1007.23895848 223.2686143 988.97489381 223.27154423 970.71082913 C223.2799873 918.10680785 223.29053068 865.50279078 223.31498337 812.89877415 C223.31548516 811.81708549 223.31598695 810.73539684 223.31650395 809.62092974 C223.32755711 785.87562074 223.3396911 762.13031243 223.35284859 738.38500451 C223.35812362 728.8307874 223.36324305 719.2765702 223.36830902 709.72235298 C223.36886722 708.67668355 223.36942543 707.63101413 223.37000055 706.55365775 C223.38791048 672.85836233 223.39315243 639.16307954 223.39175374 605.46777983 C223.39040282 571.52695059 223.40146796 537.58614994 223.42980235 503.64533177 C223.43371445 498.95542053 223.43748411 494.26550919 223.44116783 489.57559776 C223.4418951 488.65623877 223.44262237 487.73687978 223.44337167 486.78966142 C223.45452005 472.23009172 223.45223906 457.67055625 223.44435814 443.11098571 C223.43688517 428.79540299 223.44362501 414.47988559 223.4654923 400.16431698 C223.47788447 391.77093661 223.47935949 383.37772633 223.46464847 374.98434872 C223.45494581 368.7524478 223.46607624 362.52074699 223.4853007 356.28887181 C223.48980802 353.78377513 223.48762036 351.27865517 223.47792076 348.77357321 C223.39276697 325.01832218 226.79874158 304.86390722 244 287 C253.83039274 277.53425861 265.67744096 271.09826954 279 268 C279.71800781 267.8246875 280.43601562 267.649375 281.17578125 267.46875 C295.05427312 265.16526587 308.24925841 266.88134444 321.71484375 270.55078125 C323.21464333 270.94873885 324.7147008 271.34572552 326.21498108 271.74186707 C330.51929095 272.88399808 334.81771217 274.04702058 339.11489868 275.21563721 C342.12806216 276.03481583 345.14208604 276.85077053 348.15625 277.66625977 C363.37990068 281.78829715 378.59144938 285.95425093 393.80078816 290.12870961 C401.51192035 292.24498391 409.22420438 294.35705003 416.93652344 296.46899414 C418.38480589 296.86560586 419.83308813 297.26221835 421.28137016 297.6588316 C423.47166972 298.25864458 425.66197065 298.85845256 427.85227668 299.45824188 C432.28947325 300.67333753 436.72659108 301.88872021 441.1636461 303.10433263 C470.64198035 311.18042466 500.12834172 319.22696324 529.61691529 327.26557618 C536.47859025 329.13608013 543.34016671 331.00694531 550.20173919 332.87782514 C559.1840604 335.32694102 568.1664084 337.77595858 577.14881897 340.2247467 C596.4380476 345.48339138 615.72695871 350.74319929 635.015625 356.00390625 C635.69601932 356.18947358 636.37641363 356.37504091 637.07742596 356.56623149 C643.26209471 358.2530079 649.44675994 359.93979723 655.63142014 361.62660503 C665.25393637 364.25105536 674.8764723 366.87543349 684.49902344 369.49975586 C685.17967755 369.68538814 685.86033166 369.87102041 686.56161165 370.06227791 C689.99932357 370.99983197 693.43703582 371.93738479 696.87474823 372.87493706 C703.06233931 374.56245234 709.2499274 376.24997858 715.43751574 377.93750393 C718.87501037 378.87500307 722.31250519 379.8125015 725.75 380.75 C727.125 381.125 728.5 381.5 729.875 381.875 C730.555625 382.060625 731.23625 382.24625 731.9375 382.4375 C800 401 868.0625 419.5625 1400.18749672 564.68749911 C1400.8681228 564.8731244 1401.54874889 565.0587497 1402.25 565.25 C1403.62501748 565.62500477 1405.00003497 566.00000954 1406.37505245 566.37501431 C1407.05567962 566.5606399 1407.73630678 566.74626549 1408.43755901 566.93751609 C1411.87475959 567.87493443 1415.31196018 568.81235278 1418.74916077 569.74977112 C1419.77003173 570.02819047 1419.77003173 570.02819047 1420.81152636 570.31223446 C1422.87435091 570.87482297 1424.93717545 571.43741149 1427 572 C1427.68113129 572.18576308 1428.36226259 572.37152616 1429.06403422 572.56291842 C1429.74529534 572.74871691 1430.42655645 572.9345154 1431.12846184 573.12594414 C1431.80976514 573.31175413 1432.49106845 573.49756412 1433.1930173 573.68900472 C1435.2572974 574.2519902 1437.32157749 574.81497568 1439.38585758 575.37796116 C1440.40746689 575.65658188 1440.40746689 575.65658188 1441.44971478 575.9408313 C1444.20088512 576.69115049 1446.95205545 577.44146967 1449.70322579 578.19178885 C1450.38364633 578.37735809 1451.06406686 578.56292733 1451.7651062 578.75411987 C1453.13877741 579.12875748 1454.51244863 579.50339508 1455.88611984 579.87803268 C1456.56533414 580.06327295 1457.24454844 580.24851321 1457.944345 580.43936682 C1459.99638081 580.99901295 1462.04841661 581.55865908 1464.10045242 582.11830521 C1464.77616053 582.30258924 1465.45186864 582.48687327 1466.14805275 582.67674166 C1468.8762447 583.42079401 1471.60443666 584.16484636 1474.33262861 584.90889871 C1475.0079808 585.09308567 1475.68333298 585.27727263 1476.37915039 585.46704102 C1477.7448314 585.83949947 1479.11051242 586.21195793 1480.47619343 586.58441639 C1481.15257876 586.76888512 1481.82896409 586.95335384 1482.52584594 587.14341253 C1484.57708514 587.7028414 1486.62832433 588.26227027 1488.67956352 588.82169914 C1489.35695603 589.00644255 1490.03434854 589.19118597 1490.7322681 589.38152766 C1492.10058045 589.75470376 1493.46889281 590.12787986 1494.83720517 590.50105596 C1495.51459768 590.68579937 1496.19199019 590.87054278 1496.88990974 591.06088448 C1499.63440228 591.80938244 1502.37889481 592.5578804 1505.12338734 593.30637836 C1505.80516123 593.4923167 1506.48693513 593.67825504 1507.18936884 593.86982787 C1507.87211638 594.05603174 1508.55486392 594.24223562 1509.25830078 594.43408203 C1509.941758 594.62047945 1510.62521521 594.80687688 1511.32938325 594.99892271 C1513.41028301 595.56644082 1515.49118276 596.13395894 1517.57208252 596.70147705 C1518.26261162 596.88980317 1518.95314072 597.07812929 1519.66459495 597.27216226 C1521.77028432 597.84644118 1521.77028432 597.84644118 1523.8759737 598.4207201 C1524.57690238 598.61188247 1525.27783106 598.80304483 1526 599 C1526.70757541 599.19297511 1527.41515081 599.38595022 1528.1441679 599.58477306 C1529.58555871 599.97787965 1531.02694952 600.37098623 1532.46834034 600.7640928 C1533.91960111 601.15989121 1535.37086188 601.55568965 1536.82212263 601.95148814 C1540.47174909 602.946841 1544.12137573 603.94219315 1547.77100277 604.93754387 C1554.34089662 606.72933003 1560.91078917 608.52112095 1567.48067445 610.31293857 C1571.09543242 611.29879843 1574.7101915 612.28465421 1578.32495117 613.27050781 C1579.39313526 613.56183385 1579.39313526 613.56183385 1580.48289883 613.85904527 C1590.33144063 616.54503128 1600.18004321 619.23079433 1610.02868998 621.91639543 C1616.06601472 623.56270527 1622.10332245 625.2090775 1628.140625 626.85546875 C1628.78898433 627.03227692 1629.43734367 627.20908509 1630.10535026 627.39125109 C1646.87801144 631.9651964 1663.64992367 636.54187054 1680.42060661 641.12306404 C1685.98349883 642.64255409 1691.54654903 644.16146568 1697.10959721 645.68038464 C1702.05771578 647.0315074 1707.00553062 648.38373478 1711.95309639 649.7368803 C1714.86749488 650.53370268 1717.78216604 651.32952368 1720.6969223 652.12503624 C1722.63674939 652.65481426 1724.57622374 653.18588331 1726.51568604 653.71699524 C1727.63674744 654.02275986 1728.75780884 654.32852448 1729.9128418 654.64355469 C1731.36414742 655.04027374 1731.36414742 655.04027374 1732.84477234 655.44500732 C1734.79047805 656.04156242 1734.79047805 656.04156242 1736 656 C1736 625.31 1736 594.62 1736 563 C1726.739375 560.339375 1717.47875 557.67875 1707.9375 554.9375 C1682.17358185 547.52669353 1656.42518018 540.06388396 1630.6875 532.5625 C1629.44384233 532.20003237 1629.44384233 532.20003237 1628.17506027 531.83024216 C1626.49252361 531.33985572 1624.80998812 530.84946526 1623.1274538 530.35907078 C1618.93264448 529.13645064 1614.73781548 527.91389802 1610.54296875 526.69140625 C1609.71727324 526.45076635 1608.89157772 526.21012646 1608.04086113 525.96219444 C1591.56636549 521.16126554 1575.08564529 516.38195971 1558.60303116 511.60898972 C1533.22895273 504.26123705 1507.86224586 496.88849059 1482.5 489.5 C1457.98403373 482.35813932 1433.46447515 475.22896436 1408.9375 468.125 C1382.95374117 460.59909452 1356.97559972 453.05401817 1331 445.5 C1305.860306 438.18915226 1280.71878189 430.88474776 1255.57149124 423.60007095 C1229.39779739 416.018058 1203.22871287 408.42029097 1177.0625 400.8125 C1175.71411482 400.42046576 1175.71411482 400.42046576 1174.33848953 400.02051163 C1159.6335204 395.74511599 1144.9287707 391.46896586 1130.2240448 387.19273376 C1116.46196529 383.19063803 1102.69981019 379.18880241 1088.9375 375.1875 C1088.03720692 374.925741 1087.13691383 374.66398201 1086.20933914 374.39429092 C1060.26223058 366.85029993 1034.31164983 359.31840652 1008.35714722 351.79989624 C982.97588173 344.44728922 957.60104533 337.07265699 932.22742844 329.6937027 C907.17601295 322.40847357 882.12177725 315.13313972 857.0625 307.875 C831.69342296 300.52713023 806.33254151 293.15138268 780.97483063 285.76438904 C757.30054251 278.86788974 733.62237337 271.98505899 709.9375 265.125 C683.95374117 257.59909452 657.97559972 250.05401817 632 242.5 C606.860306 235.18915226 581.71878189 227.88474776 556.57149124 220.60007095 C530.39779739 213.018058 504.22871287 205.42029097 478.0625 197.8125 C477.16357655 197.55114384 476.26465309 197.28978767 475.33848953 197.02051163 C460.6335204 192.74511599 445.9287707 188.46896586 431.2240448 184.19273376 C417.46196529 180.19063803 403.69981019 176.18880241 389.9375 172.1875 C389.03720692 171.925741 388.13691383 171.66398201 387.20933914 171.39429092 C361.26223058 163.85029993 335.31164983 156.31840652 309.35714722 148.79989624 C283.9794541 141.44832409 258.60820822 134.07466511 233.23814011 126.69682693 C213.5368344 120.9675513 193.83534621 115.23893947 174.12890625 109.52734375 C173.38377525 109.31137417 172.63864426 109.09540459 171.87093353 108.87289047 C164.6640955 106.78416187 157.45701853 104.69626066 150.24945831 102.61002541 C146.82638671 101.61918242 143.40339882 100.62805054 139.98046875 99.63671875 C139.31633217 99.44437778 138.65219559 99.25203682 137.96793365 99.05386734 C128.51652894 96.31595913 119.06994633 93.56188908 109.62656212 90.79644966 C107.64063199 90.21503859 105.65455307 89.63413902 103.66841125 89.05345154 C102.70842303 88.77277313 102.70842303 88.77277313 101.7290411 88.48642445 C101.09650197 88.30149276 100.46396284 88.11656107 99.81225586 87.92602539 C94.97453888 86.51159767 90.13834709 85.09211001 85.30297852 83.66967773 C83.16819197 83.04520345 81.03334851 82.42092365 78.8984375 81.796875 C77.44616508 81.3672924 77.44616508 81.3672924 75.96455383 80.92903137 C75.08341415 80.67240219 74.20227448 80.41577301 73.29443359 80.15136719 C72.53214447 79.927453 71.76985535 79.70353882 70.98446655 79.47283936 C68.85361953 78.88410918 68.85361953 78.88410918 66 79 Z " fill="#EBAB56" transform="translate(21,27)"/>
<path d="M0 0 C6.65888053 1.33177611 13.13636714 2.74785948 19.66552734 4.53442383 C21.02868828 4.90320396 21.02868828 4.90320396 22.41938782 5.2794342 C25.39257574 6.08498492 28.36434137 6.89562968 31.3359375 7.70703125 C33.42280335 8.27518604 35.50968721 8.84327471 37.59658813 9.41130066 C41.95961053 10.59990413 46.32182478 11.79142477 50.68359375 12.98461914 C56.24465652 14.50531666 61.80852035 16.0154803 67.37315941 17.52303028 C71.68147505 18.69209015 75.98777596 19.86844036 80.29356766 21.04675865 C82.34275098 21.60628016 84.39264364 22.16321105 86.44327927 22.71738625 C110.57551556 29.2459245 132.26965213 37.58136146 146 60 C153.49452976 73.30147483 156.47351738 86.68915008 156.37719816 101.95309287 C156.38369493 103.8017198 156.38369493 103.8017198 156.39032295 105.68769273 C156.3992594 109.08486508 156.39492308 112.48153321 156.38479719 115.87866939 C156.37707739 119.59714812 156.38692064 123.31558973 156.3944377 127.03406319 C156.40524984 133.56829182 156.40495779 140.10244648 156.39736467 146.63667855 C156.3860519 156.41870411 156.39207877 166.20066735 156.40142866 175.98269225 C156.41685488 192.65573805 156.41803764 209.32875775 156.41144943 226.00180817 C156.40482147 242.89716144 156.40469698 259.79249606 156.41249657 276.68784904 C156.41298457 277.75515892 156.41347256 278.82246879 156.41397535 279.92212139 C156.41598354 284.26914653 156.41803664 288.61617165 156.42014709 292.96319674 C156.44154824 337.09106513 156.44360149 381.21891974 156.43809005 425.34679202 C156.43733434 431.44434414 156.43660672 437.54189627 156.43590808 443.6394484 C156.43569944 445.45611769 156.43569944 445.45611769 156.43548659 447.30948736 C156.43253461 474.14664555 156.43554678 500.98380208 156.43980437 527.82095997 C156.44038652 531.49365705 156.44095537 535.16635414 156.44152 538.83905124 C156.44303494 548.68423343 156.44456185 558.52941563 156.44611301 568.37459782 C156.45687028 637.10517713 156.46157097 705.83575491 156.45364285 774.56633472 C156.45342039 776.50981851 156.45342039 776.50981851 156.45319343 778.49256459 C156.45153442 792.94062996 156.44978484 807.38869532 156.44800042 821.83676068 C156.4478394 823.14121801 156.44767837 824.44567534 156.44751247 825.78966168 C156.44620468 836.37650975 156.44620468 836.37650975 156.44555128 841.61565936 C156.43515903 925.06091955 156.4429275 1008.50615865 156.46655273 1091.95141602 C156.47249608 1112.97822217 156.47838761 1134.00502834 156.48396206 1155.0318346 C156.48430583 1156.32651532 156.4846496 1157.62119604 156.48500379 1158.9551095 C156.49553014 1198.8528408 156.50112512 1238.75057034 156.5015192 1278.64830303 C156.50153199 1279.90076902 156.50154477 1281.15323501 156.50155794 1282.44365452 C156.50178622 1309.93708357 156.5007802 1337.43051247 156.49864888 1364.92394144 C156.49789411 1374.76130571 156.49721591 1384.59866999 156.49656873 1394.43603427 C156.49640604 1396.88334046 156.49623838 1399.33064666 156.49606572 1401.77795286 C156.49334381 1440.78369542 156.50190186 1479.7894252 156.51591982 1518.79516501 C156.53032266 1559.16783026 156.52988356 1599.54047115 156.5125451 1639.91313557 C156.5107409 1644.24807294 156.50900071 1648.58301034 156.50731087 1652.91794777 C156.50689037 1653.98182081 156.50646987 1655.04569385 156.50603662 1656.14180547 C156.4997376 1672.9907697 156.5068448 1689.83970049 156.51952007 1706.68866001 C156.53169932 1723.25420888 156.52960359 1739.81970495 156.51229975 1756.38524982 C156.50257927 1766.09790605 156.5037684 1775.8104123 156.52112973 1785.52305872 C156.53156956 1791.97633289 156.52746315 1798.4294929 156.51161324 1804.88275576 C156.50303655 1808.5391755 156.50053514 1812.19529871 156.51599697 1815.85170257 C156.61524302 1841.08179075 154.60067751 1862.42012984 137 1882 C136.48179688 1882.61101562 135.96359375 1883.22203125 135.4296875 1883.8515625 C126.56693271 1893.60504641 114.45620831 1899.40657263 102 1903 C100.76056641 1903.36738281 100.76056641 1903.36738281 99.49609375 1903.7421875 C81.64471221 1908.15217347 63.4796964 1903.1574332 46.2890625 1898.32421875 C44.98722032 1897.96271566 43.6852284 1897.60175149 42.38310242 1897.24127197 C39.592939 1896.46791928 36.80365703 1895.6914958 34.01504517 1894.91256714 C27.13880479 1892.99231428 20.25764076 1891.08980765 13.37697029 1889.18550301 C10.93467039 1888.50943515 8.49253456 1887.83277672 6.05039978 1887.15611267 C-11.65151111 1882.2541633 -29.37788366 1877.44283359 -47.10616684 1872.63730621 C-51.45676112 1871.45784865 -55.80711004 1870.27748685 -60.1574707 1869.09716797 C-61.89042634 1868.6270029 -63.62338227 1868.15683892 -65.3563385 1867.68667603 C-66.20827349 1867.4555373 -67.06020847 1867.22439857 -67.93795967 1866.98625565 C-70.49613236 1866.29223129 -73.05433092 1865.59830233 -75.61253357 1864.90438843 C-90.43207123 1860.88432232 -105.24857632 1856.85321047 -120.0625 1852.8125 C-121.31946686 1852.46965973 -122.57643372 1852.12681946 -123.87149048 1851.77359009 C-143.89198434 1846.31225806 -163.90893381 1840.83795992 -183.92578125 1835.36328125 C-185.82074183 1834.84500448 -185.82074183 1834.84500448 -187.75398445 1834.31625748 C-191.68258994 1833.2417701 -195.61119268 1832.1672727 -199.53979492 1831.09277344 C-204.29569003 1829.79200449 -209.05158585 1828.49123814 -213.8074832 1827.19047737 C-215.18645381 1826.81332122 -216.56542395 1826.43616337 -217.94439363 1826.05900383 C-261.87508212 1814.04360043 -305.80994166 1802.04359347 -349.75 1790.0625 C-350.42961131 1789.87719003 -351.10922262 1789.69188005 -351.80942822 1789.50095463 C-364.92231932 1785.92546781 -378.03529316 1782.35028445 -391.14834595 1778.77539062 C-410.43772917 1773.51668888 -429.72680033 1768.25684391 -449.015625 1762.99609375 C-449.69601932 1762.81052642 -450.37641363 1762.62495909 -451.07742596 1762.43376851 C-457.26209471 1760.7469921 -463.44675994 1759.06020277 -469.63142014 1757.37339497 C-479.25393637 1754.74894464 -488.8764723 1752.12456651 -498.49902344 1749.50024414 C-499.17967755 1749.31461186 -499.86033166 1749.12897959 -500.56161165 1748.93772209 C-503.99932357 1748.00016803 -507.43703582 1747.06261521 -510.87474823 1746.12506294 C-517.06233931 1744.43754766 -523.2499274 1742.75002142 -529.43751574 1741.06249607 C-532.87501037 1740.12499693 -536.31250519 1739.1874985 -539.75 1738.25 C-541.125 1737.875 -542.5 1737.5 -543.875 1737.125 C-544.555625 1736.939375 -545.23625 1736.75375 -545.9375 1736.5625 C-614 1718 -682.0625 1699.4375 -1214.18749559 1554.31250119 C-1215.56251028 1553.93749719 -1216.93752499 1553.56249322 -1218.3125397 1553.18748927 C-1221.74981492 1552.2500507 -1225.18709002 1551.31261166 -1228.62436485 1550.37517166 C-1234.8145488 1548.68693763 -1241.00473364 1546.99870688 -1247.19492328 1545.31049371 C-1250.63597162 1544.37203719 -1254.07701921 1543.43357792 -1257.51806641 1542.49511719 C-1258.19925325 1542.30934034 -1258.88044009 1542.12356349 -1259.58226895 1541.93215704 C-1269.15368297 1539.32178497 -1278.72505507 1536.7112593 -1288.29640031 1534.10063505 C-1294.43456981 1532.42642997 -1300.57275183 1530.7522708 -1306.7109375 1529.078125 C-1307.38692222 1528.89375413 -1308.06290694 1528.70938326 -1308.75937605 1528.51942539 C-1328.7999154 1523.05350709 -1348.84109824 1517.58995351 -1368.88272548 1512.12802553 C-1374.09761872 1510.70679734 -1379.31246602 1509.28540064 -1384.52728271 1507.8638916 C-1385.62608619 1507.56436844 -1385.62608619 1507.56436844 -1386.74708772 1507.25879431 C-1390.41748879 1506.2582715 -1394.08788367 1505.25772593 -1397.75827408 1504.257164 C-1404.76172828 1502.34802865 -1411.76526917 1500.43921259 -1418.76904297 1498.53125 C-1432.75012323 1494.72237916 -1446.72992281 1490.90889033 -1460.70691299 1487.0850296 C-1467.85144923 1485.13117556 -1474.99790061 1483.18457397 -1482.14635384 1481.24511504 C-1487.52916566 1479.78433162 -1492.91037512 1478.31774048 -1498.29051292 1476.8471396 C-1501.46730608 1475.97905194 -1504.64499777 1475.11453528 -1507.82420731 1474.25533295 C-1511.31765889 1473.31078948 -1514.80823313 1472.35623149 -1518.29833984 1471.39941406 C-1519.31001095 1471.12847679 -1520.32168205 1470.85753952 -1521.36400986 1470.57839203 C-1531.09639995 1467.88907287 -1540.37865302 1464.29037201 -1549 1459 C-1549 1458.34 -1549 1457.68 -1549 1457 C-1549.57105469 1456.7421875 -1550.14210938 1456.484375 -1550.73046875 1456.21875 C-1563.44439623 1449.39130529 -1571.52764769 1434.92613708 -1576.1336937 1421.7592001 C-1579.1186142 1411.49475258 -1579.54772071 1401.95699873 -1579.45410156 1391.31469727 C-1579.45297044 1389.48984807 -1579.4536121 1387.66499707 -1579.45587158 1385.84014893 C-1579.45700934 1380.93400524 -1579.4336537 1376.02826058 -1579.40557575 1371.12220883 C-1579.38040399 1365.97732192 -1579.37820775 1360.83242373 -1579.37347412 1355.68748474 C-1579.36109038 1345.96621398 -1579.32833164 1336.24512526 -1579.28807616 1326.5239343 C-1579.24321446 1315.44764401 -1579.22133534 1304.37134457 -1579.20129442 1293.29498589 C-1579.15959448 1270.52989006 -1579.08933279 1247.76495527 -1579 1225 C-1577.39968177 1225.31504375 -1575.79963624 1225.63147291 -1574.19970703 1225.94848633 C-1572.86312546 1226.21258049 -1572.86312546 1226.21258049 -1571.49954224 1226.48200989 C-1568.57912518 1227.08721957 -1565.73565898 1227.84455915 -1562.875 1228.6875 C-1561.68777344 1229.03425781 -1560.50054688 1229.38101562 -1559.27734375 1229.73828125 C-1558.6107373 1229.93502441 -1557.94413086 1230.13176758 -1557.25732422 1230.33447266 C-1553.67983445 1231.38922467 -1550.09883899 1232.43193657 -1546.51831055 1233.47631836 C-1544.4506119 1234.07947223 -1542.38306823 1234.68315762 -1540.31567383 1235.28735352 C-1533.57124114 1237.25686438 -1526.82013607 1239.20131624 -1520.0625 1241.125 C-1512.54976009 1243.26441264 -1505.05039107 1245.44476852 -1497.55859375 1247.65625 C-1483.53657396 1251.79420353 -1469.4965337 1255.86876064 -1455.43579102 1259.87304688 C-1448.79939854 1261.76537436 -1442.17712654 1263.70254489 -1435.55859375 1265.65625 C-1421.53657396 1269.79420353 -1407.4965337 1273.86876064 -1393.43579102 1277.87304688 C-1386.79939854 1279.76537436 -1380.17712654 1281.70254489 -1373.55859375 1283.65625 C-1360.70088285 1287.45061137 -1347.83094787 1291.20386065 -1334.9375 1294.875 C-1322.28952008 1298.47651655 -1309.66382312 1302.15481152 -1297.03613281 1305.82666016 C-1291.1670902 1307.53308951 -1285.29723922 1309.23673395 -1279.4274292 1310.94052124 C-1276.20158449 1311.87689369 -1272.97579512 1312.81345673 -1269.75 1313.75 C-1268.4583336 1314.12500091 -1267.16666693 1314.50000091 -1265.875 1314.875 C-1165.12500002 1344.12499999 -1165.12500002 1344.12499999 -1163.18756104 1344.68748474 C-1161.89569268 1345.06254166 -1160.60382256 1345.43759252 -1159.31195068 1345.81263733 C-1156.0858555 1346.74921693 -1152.85979077 1347.68590118 -1149.63378906 1348.62280273 C-1143.78475006 1350.32137983 -1137.93548405 1352.0191555 -1132.08509827 1353.71308899 C-1117.71448442 1357.87407542 -1103.35450341 1362.06814562 -1089.01342773 1366.33007812 C-1082.57888357 1368.24089889 -1076.13824411 1370.12117342 -1069.6796875 1371.94921875 C-1064.59236111 1373.40196907 -1059.51549402 1374.8900088 -1054.4375 1376.375 C-1046.65300751 1378.65064475 -1038.86289473 1380.90447606 -1031.0625 1383.125 C-1023.54976009 1385.26441264 -1016.05039107 1387.44476852 -1008.55859375 1389.65625 C-995.70088285 1393.45061137 -982.83094787 1397.20386065 -969.9375 1400.875 C-957.28952008 1404.47651655 -944.66382312 1408.15481152 -932.03613281 1411.82666016 C-926.1670902 1413.53308951 -920.29723922 1415.23673395 -914.4274292 1416.94052124 C-911.20158449 1417.87689369 -907.97579512 1418.81345673 -904.75 1419.75 C-903.4583336 1420.12500091 -902.16666693 1420.50000091 -900.875 1420.875 C-800.12500005 1450.12499998 -800.12500005 1450.12499998 -798.18756104 1450.68748474 C-796.89569268 1451.06254166 -795.60382256 1451.43759252 -794.31195068 1451.81263733 C-791.0858555 1452.74921693 -787.85979077 1453.68590118 -784.63378906 1454.62280273 C-778.78475006 1456.32137983 -772.93548405 1458.0191555 -767.08509827 1459.71308899 C-752.71448442 1463.87407542 -738.35450341 1468.06814562 -724.01342773 1472.33007812 C-717.57888357 1474.24089889 -711.13824411 1476.12117342 -704.6796875 1477.94921875 C-699.59236111 1479.40196907 -694.51549402 1480.8900088 -689.4375 1482.375 C-681.65300751 1484.65064475 -673.86289473 1486.90447606 -666.0625 1489.125 C-659.24790217 1491.06560182 -652.44241763 1493.03343961 -645.64697266 1495.04003906 C-636.48030904 1497.74677303 -627.30225603 1500.41446772 -618.12597656 1503.08837891 C-615.0393106 1503.98853594 -611.95316805 1504.890465 -608.8671875 1505.79296875 C-598.39879155 1508.85319448 -587.92354038 1511.88629019 -577.43408203 1514.87353516 C-570.79825875 1516.76569782 -564.1765582 1518.70271266 -557.55859375 1520.65625 C-543.53657396 1524.79420353 -529.4965337 1528.86876064 -515.43579102 1532.87304688 C-508.79939854 1534.76537436 -502.17712654 1536.70254489 -495.55859375 1538.65625 C-481.53657396 1542.79420353 -467.4965337 1546.86876064 -453.43579102 1550.87304688 C-446.79939854 1552.76537436 -440.17712654 1554.70254489 -433.55859375 1556.65625 C-419.53657396 1560.79420353 -405.4965337 1564.86876064 -391.43579102 1568.87304688 C-384.79939854 1570.76537436 -378.17712654 1572.70254489 -371.55859375 1574.65625 C-357.53657396 1578.79420353 -343.4965337 1582.86876064 -329.43579102 1586.87304688 C-322.79939854 1588.76537436 -316.17712654 1590.70254489 -309.55859375 1592.65625 C-296.70088044 1596.45061208 -283.83090309 1600.20369687 -270.9375 1603.875 C-250.92903278 1609.57483904 -230.95829006 1615.40282532 -211.01586914 1621.3293457 C-204.58051422 1623.24042188 -198.13906183 1625.12094198 -191.6796875 1626.94921875 C-186.59236111 1628.40196907 -181.51549402 1629.8900088 -176.4375 1631.375 C-168.65300751 1633.65064475 -160.86289473 1635.90447606 -153.0625 1638.125 C-145.54976009 1640.26441264 -138.05039107 1642.44476852 -130.55859375 1644.65625 C-117.909456 1648.3890606 -105.24938524 1652.08500246 -92.5625 1655.6875 C-80.94168977 1658.98923763 -69.35378262 1662.4037402 -57.76126099 1665.80310059 C-47.8487952 1668.70936629 -37.93632732 1671.61359288 -28 1674.4375 C-21.76505788 1676.20968429 -15.53421825 1677.99433781 -9.3125 1679.8125 C-8.24032227 1680.12368774 -8.24032227 1680.12368774 -7.14648438 1680.44116211 C-2.23450388 1681.88274806 -2.23450388 1681.88274806 0 1683 C0 1127.61 0 572.22 0 0 Z " fill="#EBAB56" transform="translate(1823,701)"/>
<path d="M0 0 C4.00750997 1.12111477 8.01491793 2.24259373 12.02230835 3.36413574 C13.15065063 3.67978863 14.2789929 3.99544151 15.44152737 4.32065964 C23.33618006 6.53038367 31.22380775 8.76195236 39.1015625 11.03125 C40.31421783 11.37991119 41.52687317 11.72857239 42.77627563 12.08779907 C46.04285124 13.02723632 49.30903813 13.96801742 52.5750885 14.90927887 C54.67397481 15.51411303 56.77295394 16.11862424 58.87194824 16.7230835 C89.87859341 25.65350055 120.85784008 34.67771661 151.83576202 43.70715523 C171.51609145 49.44353389 191.19967753 55.16869681 210.88417053 60.89076996 C213.62782591 61.68832146 216.3714691 62.4859149 219.1151123 63.2835083 C244.28691346 70.60085485 269.4622918 77.90577235 294.64093018 85.19955444 C320.02283509 92.55234962 345.39831465 99.92715688 370.77257156 107.3062973 C395.82398705 114.59152643 420.87822275 121.86686028 445.9375 129.125 C471.30657704 136.47286977 496.66745849 143.84861732 522.02516937 151.23561096 C545.69945779 158.13211034 569.37767311 165.01477999 593.0625 171.875 C618.69155215 179.29858462 644.31598803 186.7379322 669.9375 194.1875 C671.75325515 194.71542378 673.56901036 195.24334736 675.38476562 195.77127075 C689.18196345 199.78280627 702.97896687 203.79501026 716.7759552 207.80726624 C730.53803471 211.80936197 744.30018981 215.81119759 758.0625 219.8125 C758.96279308 220.074259 759.86308617 220.33601799 760.79066086 220.60570908 C786.73776942 228.14970007 812.68835017 235.68159348 838.64285278 243.20010376 C864.02411827 250.55271078 889.39895467 257.92734301 914.77257156 265.3062973 C939.82398705 272.59152643 964.87822275 279.86686028 989.9375 287.125 C1015.30657704 294.47286977 1040.66745849 301.84861732 1066.02516937 309.23561096 C1089.69945749 316.13211026 1113.37762663 323.01494101 1137.0625 329.875 C1163.97026896 337.6685347 1190.87185568 345.48318136 1217.77115631 353.30589294 C1242.82303661 360.59128064 1267.87775154 367.8667238 1292.9375 375.125 C1318.30657704 382.47286977 1343.66745849 389.84861732 1369.02516937 397.23561096 C1392.69945749 404.13211026 1416.37762663 411.01494101 1440.0625 417.875 C1466.97026896 425.6685347 1493.87185568 433.48318136 1520.77115631 441.30589294 C1545.82303661 448.59128064 1570.87775154 455.8667238 1595.9375 463.125 C1621.29735104 470.47019756 1646.64908293 477.84301392 1671.99749756 485.22757721 C1699.09594455 493.12193272 1726.20038862 500.99532822 1753.31156826 508.84584808 C1756.02050594 509.63027958 1758.72940596 510.41484108 1761.43831062 511.1993866 C1763.21796585 511.71470869 1764.99770513 512.2297405 1766.77745056 512.74475098 C1778.52337646 516.14596525 1790.26059638 519.57600728 1802 523 C1802 1128.22 1802 1733.44 1802 2357 C1784.04773124 2352.51193281 1784.04773124 2352.51193281 1777.125 2350.1875 C1769.78680088 2347.8009702 1762.39817275 2345.71799522 1754.9375 2343.75 C1744.53159039 2340.99902135 1734.19515776 2338.05351374 1723.875 2335 C1723.14813995 2334.78495819 1722.42127991 2334.56991638 1721.6723938 2334.34835815 C1718.79112058 2333.49541213 1715.91007587 2332.64170174 1713.02940369 2331.78672791 C1706.81674628 2329.94312352 1700.59731766 2328.12323285 1694.375 2326.3125 C1693.42351074 2326.03535156 1692.47202148 2325.75820312 1691.49169922 2325.47265625 C1689.60746134 2324.92385538 1687.72318446 2324.37518838 1685.83886719 2323.82666016 C1681.89929112 2322.67948054 1677.96025505 2321.5304527 1674.02124023 2320.38134766 C1672.01557996 2319.79626211 1670.00988365 2319.21130011 1668.00415039 2318.62646484 C1662.96708564 2317.15771479 1657.93043496 2315.6875701 1652.89453125 2314.21484375 C1643.43704419 2311.45034753 1633.97652578 2308.69858949 1624.5 2306 C1614.00234309 2303.01062739 1603.52450874 2299.9548196 1593.04833984 2296.89111328 C1589.03046229 2295.71657756 1585.01185855 2294.54453979 1580.99316406 2293.37280273 C1578.99634633 2292.79053329 1576.99960161 2292.2080134 1575.00292969 2291.62524414 C1569.9914309 2290.16267306 1564.97905315 2288.70325299 1559.96484375 2287.25 C1550.07929924 2284.38131965 1540.21310998 2281.46512375 1530.375 2278.4375 C1522.06836729 2275.88552176 1513.72667644 2273.5220066 1505.33496094 2271.26708984 C1495.52512497 2268.62356414 1485.78259681 2265.75960412 1476.03662109 2262.89111328 C1473.01179628 2262.00346168 1469.9848615 2261.12343463 1466.95703125 2260.24609375 C1457.07358197 2257.38037402 1447.2103915 2254.46428715 1437.375 2251.4375 C1429.06836729 2248.88552176 1420.72667644 2246.5220066 1412.33496094 2244.26708984 C1402.52381538 2241.62321124 1392.77963746 2238.75956544 1383.03222656 2235.89111328 C1378.02386356 2234.41925137 1373.01177722 2232.96018519 1368 2231.5 C1361.96424347 2229.74033006 1355.92881946 2227.97954295 1349.89453125 2226.21484375 C1340.43704419 2223.45034753 1330.97652578 2220.69858949 1321.5 2218 C1311.00234309 2215.01062739 1300.52450874 2211.9548196 1290.04833984 2208.89111328 C1285.03293687 2207.42497354 1280.01643195 2205.96261444 1275 2204.5 C1268.96428198 2202.74019773 1262.92881959 2200.97954299 1256.89453125 2199.21484375 C1247.43704419 2196.45034753 1237.97652578 2193.69858949 1228.5 2191 C1218.00234309 2188.01062739 1207.52450874 2184.9548196 1197.04833984 2181.89111328 C1193.03046229 2180.71657756 1189.01185855 2179.54453979 1184.99316406 2178.37280273 C1182.99634633 2177.79053329 1180.99960161 2177.2080134 1179.00292969 2176.62524414 C1173.9914309 2175.16267306 1168.97905315 2173.70325299 1163.96484375 2172.25 C1154.07929924 2169.38131965 1144.21310998 2166.46512375 1134.375 2163.4375 C1126.06836729 2160.88552176 1117.72667644 2158.5220066 1109.33496094 2156.26708984 C1099.52381538 2153.62321124 1089.77963746 2150.75956544 1080.03222656 2147.89111328 C1075.02386356 2146.41925137 1070.01177722 2144.96018519 1065 2143.5 C1058.96424347 2141.74033006 1052.92881946 2139.97954295 1046.89453125 2138.21484375 C1037.43704419 2135.45034753 1027.97652578 2132.69858949 1018.5 2130 C1008.00234309 2127.01062739 997.52450874 2123.9548196 987.04833984 2120.89111328 C982.03293687 2119.42497354 977.01643195 2117.96261444 972 2116.5 C965.96428198 2114.74019773 959.92881959 2112.97954299 953.89453125 2111.21484375 C944.43704419 2108.45034753 934.97652578 2105.69858949 925.5 2103 C915.00234309 2100.01062739 904.52450874 2096.9548196 894.04833984 2093.89111328 C890.03046229 2092.71657756 886.01185855 2091.54453979 881.99316406 2090.37280273 C879.99634633 2089.79053329 877.99960161 2089.2080134 876.00292969 2088.62524414 C870.9914309 2087.16267306 865.97905315 2085.70325299 860.96484375 2084.25 C851.07929924 2081.38131965 841.21310998 2078.46512375 831.375 2075.4375 C823.06836729 2072.88552176 814.72667644 2070.5220066 806.33496094 2068.26708984 C796.52512497 2065.62356414 786.78259681 2062.75960412 777.03662109 2059.89111328 C774.01179628 2059.00346168 770.9848615 2058.12343463 767.95703125 2057.24609375 C758.07358197 2054.38037402 748.2103915 2051.46428715 738.375 2048.4375 C730.06836729 2045.88552176 721.72667644 2043.5220066 713.33496094 2041.26708984 C703.52381538 2038.62321124 693.77963746 2035.75956544 684.03222656 2032.89111328 C679.02386356 2031.41925137 674.01177722 2029.96018519 669 2028.5 C662.96424347 2026.74033006 656.92881946 2024.97954295 650.89453125 2023.21484375 C641.43704419 2020.45034753 631.97652578 2017.69858949 622.5 2015 C612.00234309 2012.01062739 601.52450874 2008.9548196 591.04833984 2005.89111328 C586.03293687 2004.42497354 581.01643195 2002.96261444 576 2001.5 C569.96428198 1999.74019773 563.92881959 1997.97954299 557.89453125 1996.21484375 C548.43704419 1993.45034753 538.97652578 1990.69858949 529.5 1988 C519.00234309 1985.01062739 508.52450874 1981.9548196 498.04833984 1978.89111328 C494.03046229 1977.71657756 490.01185855 1976.54453979 485.99316406 1975.37280273 C483.99634633 1974.79053329 481.99960161 1974.2080134 480.00292969 1973.62524414 C474.9914309 1972.16267306 469.97905315 1970.70325299 464.96484375 1969.25 C455.07929924 1966.38131965 445.21310998 1963.46512375 435.375 1960.4375 C427.06836729 1957.88552176 418.72667644 1955.5220066 410.33496094 1953.26708984 C400.52381538 1950.62321124 390.77963746 1947.75956544 381.03222656 1944.89111328 C376.02386356 1943.41925137 371.01177722 1941.96018519 366 1940.5 C359.96424347 1938.74033006 353.92881946 1936.97954295 347.89453125 1935.21484375 C338.43704419 1932.45034753 328.97652578 1929.69858949 319.5 1927 C309.00234309 1924.01062739 298.52450874 1920.9548196 288.04833984 1917.89111328 C282.0320127 1916.13237597 276.01444081 1914.37789494 269.99633789 1912.62524414 C265.01855194 1911.17499118 260.04262827 1909.718907 255.0703125 1908.25 C246.31921817 1905.67066633 237.56630784 1903.12530324 228.74406433 1900.79914856 C210.22548274 1895.90968059 191.85895479 1890.49691894 173.47563553 1885.12659836 C168.72450711 1883.73933228 163.97246601 1882.35520016 159.22045898 1880.97094727 C157.28577979 1880.40734047 155.35110267 1879.84372657 153.41642761 1879.28010559 C152.45715048 1879.00064402 151.49787334 1878.72118244 150.50952721 1878.43325233 C147.60261056 1877.58624288 144.69579779 1876.73887782 141.78901672 1875.8914032 C125.46598138 1871.13273183 109.13683761 1866.39533284 92.8052063 1861.66625977 C88.59899681 1860.44820772 84.39308707 1859.22912313 80.18725586 1858.00976562 C78.81297315 1857.61134805 77.43869031 1857.21293089 76.06440735 1856.81451416 C75.38960138 1856.6188813 74.71479542 1856.42324844 74.01954079 1856.22168732 C64.56819541 1853.48168331 55.11626802 1850.74372399 45.66267681 1848.01147747 C39.75380673 1846.30357255 33.84585244 1844.59251985 27.9382019 1842.88040161 C25.50033185 1842.17452774 23.06212511 1841.46981552 20.62356567 1840.7663269 C17.31589015 1839.81200929 14.00937656 1838.85376846 10.703125 1837.89453125 C9.72462082 1837.61330414 8.74611664 1837.33207703 7.73796082 1837.04232788 C6.85667007 1836.78577423 5.97537933 1836.52922058 5.06738281 1836.26489258 C4.30065247 1836.04319901 3.53392212 1835.82150543 2.74395752 1835.59309387 C1 1835 1 1835 0 1834 C-0.09777878 1832.35259596 -0.12478365 1830.70096348 -0.12467116 1829.05066025 C-0.12820051 1827.4279151 -0.12820051 1827.4279151 -0.13180115 1825.77238722 C-0.12929228 1824.56582558 -0.1267834 1823.35926394 -0.1241985 1822.11613983 C-0.12547658 1820.84128203 -0.12675467 1819.56642424 -0.12807148 1818.25293439 C-0.13151199 1814.67602701 -0.12864093 1811.09914709 -0.12483745 1807.52224108 C-0.12179305 1803.63080401 -0.12452685 1799.73937047 -0.12654433 1795.84793332 C-0.12928997 1788.98860862 -0.12827547 1782.1292922 -0.12488318 1775.26996791 C-0.11982459 1765.00129878 -0.12050639 1754.73263562 -0.12234976 1744.4639657 C-0.12532238 1726.96740553 -0.12353476 1709.47084869 -0.11920547 1691.97428894 C-0.11483461 1674.23174056 -0.11263205 1656.48919391 -0.11310768 1638.74664497 C-0.11313637 1637.62798478 -0.11316507 1636.50932459 -0.11319463 1635.3567656 C-0.11335099 1629.65319103 -0.11354294 1623.94961645 -0.11374746 1618.24604188 C-0.11515674 1576.91234306 -0.11171799 1535.57864578 -0.10573006 1494.24494743 C-0.09981226 1453.29773895 -0.0959559 1412.35053113 -0.09487724 1371.40332222 C-0.09482563 1369.49746208 -0.09482563 1369.49746208 -0.09477296 1367.55309972 C-0.09445978 1355.94876419 -0.09417208 1344.34442866 -0.09391499 1332.74009313 C-0.09327551 1303.89002251 -0.09231613 1275.03995192 -0.09113979 1246.18988132 C-0.09105982 1244.21899389 -0.09105982 1244.21899389 -0.09097823 1242.20829054 C-0.08926019 1200.32090998 -0.08621839 1158.43352964 -0.08213139 1116.54614925 C-0.0820651 1115.86664346 -0.08199881 1115.18713766 -0.08193051 1114.48704079 C-0.07990977 1093.80179837 -0.0777914 1073.11655596 -0.07565394 1052.43131356 C-0.073289 1029.54041103 -0.0709407 1006.6495085 -0.06866455 983.75860596 C-0.06859605 983.07027969 -0.06852755 982.38195343 -0.06845698 981.67276879 C-0.06195804 916.3121126 -0.05814638 850.95145634 -0.05503077 785.59079991 C-0.05489862 782.82276468 -0.0547657 780.05472946 -0.05463275 777.28669424 C-0.05340936 751.81486895 -0.05221752 726.34304367 -0.05106533 700.87121838 C-0.05103469 700.19390671 -0.05100405 699.51659504 -0.05097248 698.81875878 C-0.05087972 696.76804133 -0.05078697 694.71732388 -0.05069422 692.66660643 C-0.04821781 637.91633303 -0.04547588 583.16605964 -0.04255217 528.41578626 C-0.04241293 525.80829878 -0.04227388 523.2008113 -0.04213501 520.59332383 C-0.03588007 403.17541554 -0.02654155 285.75750757 -0.01586914 168.33959961 C-0.01576921 167.23989356 -0.01566927 166.14018751 -0.01556631 165.00715703 C-0.01056561 110.00477134 -0.00539152 55.00238566 0 0 Z M66 79 C66 644.95 66 1210.9 66 1794 C77.65599345 1797.91654163 77.65599345 1797.91654163 89.38574219 1801.50097656 C90.10382931 1801.70881114 90.82191643 1801.91664572 91.56176376 1802.13077831 C93.88930145 1802.80365294 96.21805828 1803.472192 98.546875 1804.140625 C100.22692366 1804.62531026 101.90689394 1805.11026726 103.58679199 1805.59547424 C107.13844085 1806.62067595 110.6906345 1807.64395863 114.24328613 1808.66567993 C119.80090072 1810.26408805 125.35706135 1811.86751096 130.91308594 1813.47143555 C147.33851219 1818.21161878 163.76796757 1822.93759784 180.20388031 1827.64129257 C184.3121042 1828.81741753 188.41975598 1829.99553979 192.52742386 1831.17360497 C196.88889284 1832.42395415 201.25234838 1833.66721496 205.61621094 1834.90917969 C207.85357915 1835.54990843 210.09088773 1836.19084545 212.328125 1836.83203125 C213.31905151 1837.11220596 214.30997803 1837.39238068 215.33093262 1837.68104553 C219.25198288 1838.80938004 223.07235565 1839.95280651 226.81054688 1841.59716797 C229.77238126 1842.89988539 232.5753441 1843.80969797 235.703125 1844.61328125 C236.75661133 1844.88873779 237.81009766 1845.16419434 238.89550781 1845.44799805 C240.00249023 1845.73328369 241.10947266 1846.01856934 242.25 1846.3125 C251.87764505 1848.84477824 261.37615606 1851.6133804 270.84765625 1854.671875 C275.54690273 1856.1881054 280.28546303 1857.54368775 285.0390625 1858.87890625 C290.22507842 1860.33773006 295.39216347 1861.86176056 300.5625 1863.375 C308.34693629 1865.65083434 316.1371067 1867.90447647 323.9375 1870.125 C331.45023991 1872.26441264 338.94960893 1874.44476852 346.44140625 1876.65625 C360.46342604 1880.79420353 374.5034663 1884.86876064 388.56420898 1888.87304688 C393.82047384 1890.37183925 399.07010564 1891.89090532 404.3125 1893.4375 C404.98442383 1893.63561279 405.65634766 1893.83372559 406.34863281 1894.0378418 C407.77573424 1894.45876028 409.20281685 1894.87974257 410.62988281 1895.30078125 C411.41202148 1895.53152344 412.19416016 1895.76226563 413 1896 C413.89557617 1896.26425781 414.79115234 1896.52851562 415.71386719 1896.80078125 C426.55293234 1899.99453203 437.39835128 1903.13447869 448.3125 1906.0625 C455.90873239 1908.10369205 463.41252728 1910.34146124 470.89892578 1912.75244141 C478.3800282 1915.15156969 485.92445402 1917.29850723 493.484375 1919.43359375 C499.31419599 1921.08147029 505.12524238 1922.79141965 510.9375 1924.5 C518.56048505 1926.73771693 526.20068346 1928.88320032 533.875 1930.9375 C543.11861843 1933.41810839 552.25584367 1936.192974 561.39355469 1939.03662109 C569.80514269 1941.64948154 578.25060871 1944.10970611 586.7265625 1946.50390625 C592.49479543 1948.13377501 598.24742565 1949.81583855 604 1951.5 C611.63851984 1953.73451367 619.28297137 1955.94595301 626.9375 1958.125 C634.45023866 1960.26441689 641.94960893 1962.44476851 649.44140625 1964.65625 C663.46342604 1968.79420353 677.5034663 1972.86876064 691.56420898 1976.87304688 C698.20060146 1978.76537436 704.82287346 1980.70254489 711.44140625 1982.65625 C725.46342604 1986.79420353 739.5034663 1990.86876064 753.56420898 1994.87304688 C758.82047384 1996.37183925 764.07010564 1997.89090532 769.3125 1999.4375 C769.98442383 1999.63561279 770.65634766 1999.83372559 771.34863281 2000.0378418 C772.77573424 2000.45876028 774.20281685 2000.87974257 775.62988281 2001.30078125 C776.80309082 2001.64689453 776.80309082 2001.64689453 778 2002 C778.89557617 2002.26425781 779.79115234 2002.52851562 780.71386719 2002.80078125 C791.55293234 2005.99453203 802.39835128 2009.13447869 813.3125 2012.0625 C820.90873239 2014.10369205 828.41252728 2016.34146124 835.89892578 2018.75244141 C843.3800282 2021.15156969 850.92445402 2023.29850723 858.484375 2025.43359375 C864.31419599 2027.08147029 870.12524238 2028.79141965 875.9375 2030.5 C883.56048505 2032.73771693 891.20068346 2034.88320032 898.875 2036.9375 C908.11861843 2039.41810839 917.25584367 2042.192974 926.39355469 2045.03662109 C934.80514269 2047.64948154 943.25060871 2050.10970611 951.7265625 2052.50390625 C957.49479543 2054.13377501 963.24742565 2055.81583855 969 2057.5 C976.63851984 2059.73451367 984.28297137 2061.94595301 991.9375 2064.125 C999.45023866 2066.26441689 1006.94960893 2068.44476851 1014.44140625 2070.65625 C1028.46342604 2074.79420353 1042.5034663 2078.86876064 1056.56420898 2082.87304688 C1063.20060146 2084.76537436 1069.82287346 2086.70254489 1076.44140625 2088.65625 C1090.46342604 2092.79420353 1104.5034663 2096.86876064 1118.56420898 2100.87304688 C1125.20060146 2102.76537436 1131.82287346 2104.70254489 1138.44140625 2106.65625 C1152.46342604 2110.79420353 1166.5034663 2114.86876064 1180.56420898 2118.87304688 C1186.50257285 2120.56633569 1192.43078543 2122.29128421 1198.35302734 2124.04003906 C1205.44361762 2126.13374975 1212.5410025 2128.20393789 1219.6394043 2130.27099609 C1224.79397482 2131.77220146 1229.94732194 2133.2772871 1235.09765625 2134.79296875 C1244.66622154 2137.60433937 1254.2413746 2140.35717385 1263.875 2142.9375 C1273.118581 2145.41826165 1282.25583654 2148.19297178 1291.39355469 2151.03662109 C1299.80514269 2153.64948154 1308.25060871 2156.10970611 1316.7265625 2158.50390625 C1322.49479543 2160.13377501 1328.24742565 2161.81583855 1334 2163.5 C1341.63851984 2165.73451367 1349.28297137 2167.94595301 1356.9375 2170.125 C1364.45023866 2172.26441689 1371.94960893 2174.44476851 1379.44140625 2176.65625 C1393.46342604 2180.79420353 1407.5034663 2184.86876064 1421.56420898 2188.87304688 C1428.20060146 2190.76537436 1434.82287346 2192.70254489 1441.44140625 2194.65625 C1455.46342604 2198.79420353 1469.5034663 2202.86876064 1483.56420898 2206.87304688 C1490.20060146 2208.76537436 1496.82287346 2210.70254489 1503.44140625 2212.65625 C1517.46342604 2216.79420353 1531.5034663 2220.86876064 1545.56420898 2224.87304688 C1551.50257285 2226.56633569 1557.43078543 2228.29128421 1563.35302734 2230.04003906 C1570.44361762 2232.13374975 1577.5410025 2234.20393789 1584.6394043 2236.27099609 C1589.79397482 2237.77220146 1594.94732194 2239.2772871 1600.09765625 2240.79296875 C1609.66622154 2243.60433937 1619.2413746 2246.35717385 1628.875 2248.9375 C1638.118581 2251.41826165 1647.25583654 2254.19297178 1656.39355469 2257.03662109 C1664.80514269 2259.64948154 1673.25060871 2262.10970611 1681.7265625 2264.50390625 C1687.49479774 2266.13377566 1693.24736387 2267.81604401 1699 2269.5 C1706.89177929 2271.80578647 1714.78567476 2274.10384995 1722.6875 2276.375 C1723.55439453 2276.62572266 1724.42128906 2276.87644531 1725.31445312 2277.13476562 C1726.12205078 2277.36615234 1726.92964844 2277.59753906 1727.76171875 2277.8359375 C1728.8129895 2278.13830322 1728.8129895 2278.13830322 1729.88549805 2278.44677734 C1732.24138895 2279.06315522 1734.61097981 2279.53041395 1737 2280 C1737.00550258 2230.79923505 1737.01077169 2181.59847007 1737.01586914 2132.39770508 C1737.01596894 2131.43464554 1737.01606874 2130.471586 1737.01617156 2129.47934284 C1737.02687412 2026.13838424 1737.03609314 1922.79742564 1737.04234314 1819.45646667 C1737.04248259 1817.15689651 1737.04262204 1814.85732635 1737.04276149 1812.55775619 C1737.04568517 1764.27253301 1737.04840177 1715.98730982 1737.05087968 1667.70208662 C1737.05212492 1643.44116747 1737.05340989 1619.18024832 1737.05473244 1594.91932917 C1737.05493169 1591.26001899 1737.05512981 1587.60070881 1737.05532788 1583.94139863 C1737.0583822 1527.69776901 1737.06228024 1471.4541396 1737.06866455 1415.21051025 C1737.0688699 1413.40124342 1737.0688699 1413.40124342 1737.0690794 1411.55542575 C1737.07129133 1392.11246811 1737.07357511 1372.66951048 1737.07586844 1353.22655285 C1737.08248552 1297.11733976 1737.08855763 1241.00812683 1737.09113979 1184.89891338 C1737.09119333 1183.74121589 1737.09124686 1182.58351841 1737.09130202 1181.39073918 C1737.0924687 1155.95569243 1737.09336313 1130.52064569 1737.09400098 1105.08559893 C1737.09426255 1094.84612019 1737.09456317 1084.60664145 1737.09487724 1074.3671627 C1737.09491067 1073.24660646 1737.0949441 1072.12605022 1737.09497854 1070.97153772 C1737.09606885 1035.07000579 1737.10031882 999.16847512 1737.10628221 963.2669437 C1737.11229145 927.00016001 1737.11508717 890.73337754 1737.11362399 854.46659334 C1737.113421 849.41604842 1737.11325358 844.3655035 1737.11310768 839.31495857 C1737.1130778 838.32520144 1737.11304792 837.3354443 1737.11301713 836.31569452 C1737.11266421 821.79172141 1737.11510308 807.26775071 1737.11920547 792.74377823 C1737.12507482 771.44151431 1737.1267443 750.13925436 1737.12025452 728.83699036 C1737.1198905 727.59964454 1737.1198905 727.59964454 1737.11951914 726.33730184 C1737.10259256 671.88695456 1736.82451075 617.44503641 1736 563 C1735.20047669 562.77030994 1734.40095337 562.54061987 1733.57720208 562.3039695 C1730.5650957 561.43863202 1727.55299342 560.57328023 1724.54089379 559.70791924 C1722.61447279 559.15447277 1720.68804718 558.6010423 1718.76162148 558.04761219 C1689.38723402 549.6084502 1660.02928749 541.11432023 1630.6875 532.5625 C1629.44384233 532.20003237 1629.44384233 532.20003237 1628.17506027 531.83024216 C1626.49252361 531.33985572 1624.80998812 530.84946526 1623.1274538 530.35907078 C1618.93264448 529.13645064 1614.73781548 527.91389802 1610.54296875 526.69140625 C1609.71727324 526.45076635 1608.89157772 526.21012646 1608.04086113 525.96219444 C1591.56636549 521.16126554 1575.08564529 516.38195971 1558.60303116 511.60898972 C1533.22895273 504.26123705 1507.86224586 496.88849059 1482.5 489.5 C1457.98403373 482.35813932 1433.46447515 475.22896436 1408.9375 468.125 C1382.95374117 460.59909452 1356.97559972 453.05401817 1331 445.5 C1305.860306 438.18915226 1280.71878189 430.88474776 1255.57149124 423.60007095 C1229.39779739 416.018058 1203.22871287 408.42029097 1177.0625 400.8125 C1175.71411482 400.42046576 1175.71411482 400.42046576 1174.33848953 400.02051163 C1159.6335204 395.74511599 1144.9287707 391.46896586 1130.2240448 387.19273376 C1116.46196529 383.19063803 1102.69981019 379.18880241 1088.9375 375.1875 C1088.03720692 374.925741 1087.13691383 374.66398201 1086.20933914 374.39429092 C1060.26223058 366.85029993 1034.31164983 359.31840652 1008.35714722 351.79989624 C982.97588173 344.44728922 957.60104533 337.07265699 932.22742844 329.6937027 C907.17601295 322.40847357 882.12177725 315.13313972 857.0625 307.875 C831.69342296 300.52713023 806.33254151 293.15138268 780.97483063 285.76438904 C757.30054251 278.86788974 733.62237337 271.98505899 709.9375 265.125 C683.95374117 257.59909452 657.97559972 250.05401817 632 242.5 C606.860306 235.18915226 581.71878189 227.88474776 556.57149124 220.60007095 C530.39779739 213.018058 504.22871287 205.42029097 478.0625 197.8125 C477.16357655 197.55114384 476.26465309 197.28978767 475.33848953 197.02051163 C460.6335204 192.74511599 445.9287707 188.46896586 431.2240448 184.19273376 C417.46196529 180.19063803 403.69981019 176.18880241 389.9375 172.1875 C389.03720692 171.925741 388.13691383 171.66398201 387.20933914 171.39429092 C361.26223058 163.85029993 335.31164983 156.31840652 309.35714722 148.79989624 C283.9794541 141.44832409 258.60820822 134.07466511 233.23814011 126.69682693 C213.5368344 120.9675513 193.83534621 115.23893947 174.12890625 109.52734375 C173.38377525 109.31137417 172.63864426 109.09540459 171.87093353 108.87289047 C164.6640955 106.78416187 157.45701853 104.69626066 150.24945831 102.61002541 C146.82638671 101.61918242 143.40339882 100.62805054 139.98046875 99.63671875 C139.31633217 99.44437778 138.65219559 99.25203682 137.96793365 99.05386734 C128.51652894 96.31595913 119.06994633 93.56188908 109.62656212 90.79644966 C107.64063199 90.21503859 105.65455307 89.63413902 103.66841125 89.05345154 C102.70842303 88.77277313 102.70842303 88.77277313 101.7290411 88.48642445 C101.09650197 88.30149276 100.46396284 88.11656107 99.81225586 87.92602539 C94.97453888 86.51159767 90.13834709 85.09211001 85.30297852 83.66967773 C83.16819197 83.04520345 81.03334851 82.42092365 78.8984375 81.796875 C77.44616508 81.3672924 77.44616508 81.3672924 75.96455383 80.92903137 C75.08341415 80.67240219 74.20227448 80.41577301 73.29443359 80.15136719 C72.53214447 79.927453 71.76985535 79.70353882 70.98446655 79.47283936 C68.85361953 78.88410918 68.85361953 78.88410918 66 79 Z " fill="#944E25" transform="translate(21,27)"/>
<path d="M0 0 C53.79 0 107.58 0 163 0 C163.02013078 91.20668754 163.02013078 91.20668754 163.02565002 119.42773438 C163.02584736 120.43421851 163.02604469 121.44070264 163.02624801 122.47768629 C163.03287328 156.36077508 163.03812388 190.24386395 163.04234314 224.12695312 C163.04255023 225.78572032 163.04255023 225.78572032 163.04276149 227.47799796 C163.04575445 251.51140501 163.04852463 275.54481208 163.05106533 299.57821918 C163.05231266 311.3643206 163.05360921 323.15042202 163.05493164 334.93652344 C163.0550624 336.10937765 163.05519316 337.28223186 163.05532788 338.49062711 C163.05958867 376.50121364 163.06709957 414.51179869 163.07629722 452.52238432 C163.0857324 491.5855678 163.09188605 530.64875046 163.09391499 569.71193507 C163.09420314 575.23025896 163.09452878 580.74858285 163.09487724 586.26690674 C163.09497838 587.896023 163.09497838 587.896023 163.09508156 589.55805071 C163.09626294 607.03575487 163.1009001 624.51345648 163.10683203 641.9911596 C163.11272285 659.56525155 163.11496708 677.13934097 163.11350138 694.71343386 C163.11274123 705.15246252 163.11476472 715.59148195 163.12079754 726.03050894 C163.12455481 733.0092937 163.12465846 739.98807243 163.12183181 746.9668576 C163.12032607 750.93970374 163.12037035 754.91253244 163.12488318 758.88537669 C163.16452685 795.95108768 163.16452685 795.95108768 160.8359375 811.03125 C160.72331573 811.78743622 160.61069397 812.54362244 160.49465942 813.32272339 C160.13229847 815.71698506 159.7559986 818.10863734 159.375 820.5 C159.24472412 821.32638977 159.11444824 822.15277954 158.98022461 823.00421143 C156.74124752 837.04246252 153.64694458 850.54305402 149 864 C148.74750488 864.75313477 148.49500977 865.50626953 148.23486328 866.28222656 C144.7355227 876.63765662 140.20248464 886.3948587 135 896 C134.66129883 896.6276123 134.32259766 897.25522461 133.97363281 897.90185547 C115.89225907 930.87932771 85.93534971 954.51226197 50.109375 965.6484375 C40.30203799 968.42862486 30.08328191 969.64461163 20 971 C18.89253418 971.16012573 18.89253418 971.16012573 17.76269531 971.32348633 C13.12156811 971.96720818 8.67457989 972.10423732 4 972.0625 C3.32066406 972.05798828 2.64132812 972.05347656 1.94140625 972.04882812 C0.29423126 972.0372283 -1.35289726 972.01930199 -3 972 C-6.97895197 961.30162582 -10.89652974 950.58119456 -14.75421143 939.83850098 C-15.2099381 938.57060791 -15.66676721 937.30311056 -16.12469482 936.03601074 C-16.77244988 934.24257965 -17.4156181 932.44749389 -18.05859375 930.65234375 C-18.43298584 929.61070068 -18.80737793 928.56905762 -19.19311523 927.49584961 C-20 925 -20 925 -20 923 C-19.44763672 922.93530518 -18.89527344 922.87061035 -18.32617188 922.80395508 C4.17724855 920.08890901 25.88407352 914.81842883 43 899 C43.96421875 898.12730469 44.9284375 897.25460937 45.921875 896.35546875 C76.40320371 867.91109007 85.39034247 824.13654393 87.17189156 784.14106317 C87.4122168 775.76786183 87.42142385 767.39451864 87.40173779 759.01857967 C87.39647012 755.31168448 87.40892272 751.60483431 87.41886932 747.8979544 C87.4338867 741.43760535 87.4381919 734.97732295 87.43499184 728.51695824 C87.43028462 718.91102318 87.44291978 709.30516231 87.45882157 699.699242 C87.48510882 683.53153143 87.49775843 667.36383799 87.50238609 651.19610786 C87.50700746 635.20925342 87.51784338 619.22242264 87.53681374 603.23557854 C87.53799386 602.23815344 87.53917399 601.24072834 87.54038988 600.21307824 C87.54641606 595.14678346 87.55255168 590.08048883 87.55872939 585.01419424 C87.60218557 549.21511686 87.63195759 513.41604005 87.65356445 477.61694336 C87.67457484 442.85847118 87.70185685 408.10001307 87.73754883 373.34155273 C87.73864831 372.26841573 87.73974778 371.19527873 87.74088058 370.08962243 C87.75192978 359.31183917 87.76310562 348.53405606 87.7743742 337.75627303 C87.79732267 315.80455202 87.81942643 293.85283018 87.84101868 271.90110779 C87.84250911 270.3874555 87.84250911 270.3874555 87.84402964 268.84322438 C87.91018167 201.5621611 87.9566487 134.28108136 88 67 C87.44473003 66.98858223 86.88946007 66.97716446 86.31736374 66.9654007 C80.4222398 66.84410931 74.52712669 66.72230038 68.63201904 66.60021973 C66.44574237 66.55500821 64.25946315 66.50991919 62.07318115 66.46496582 C5.17887216 65.29471804 5.17887216 65.29471804 0 64 C0 42.88 0 21.76 0 0 Z " fill="#944E25" transform="translate(919,834)"/>
<path d="M0 0 C18.81 0 37.62 0 57 0 C60.26216424 7.82919418 63.37660998 15.57830335 66.1953125 23.55859375 C66.58020844 24.63967911 66.96510437 25.72076447 67.36166382 26.83460999 C68.61898589 30.36789124 69.87193637 33.90270653 71.125 37.4375 C72.01589511 39.94284484 72.90708514 42.44808209 73.79882812 44.953125 C74.25360862 46.23080176 74.70838153 47.50848121 75.16314697 48.78616333 C75.38972237 49.42272984 75.61629776 50.05929634 75.84973907 50.71515274 C76.54189948 52.66031645 77.23362811 54.6056332 77.92523193 56.55099487 C82.04150096 68.12803415 86.18560357 79.6950143 90.33685303 91.259552 C98.08832634 112.85462706 105.81345329 134.45904986 113.52172852 156.06958008 C117.57923722 167.44199246 121.64753856 178.81027859 125.74609375 190.16796875 C135.40840883 216.96252187 144.83348232 243.8290825 154.06030273 270.77612305 C154.4841777 272.01388992 154.90805267 273.2516568 155.34477234 274.52693176 C156.15818554 276.90289112 156.97112007 279.27901442 157.78352356 281.65531921 C160.19855023 288.70705503 162.66578577 295.73525885 165.24462891 302.72875977 C166 305 166 305 166 307 C166.66 307 167.32 307 168 307 C168.24355225 305.78256104 168.48710449 304.56512207 168.73803711 303.31079102 C170.12817255 297.07645794 172.16415793 291.07862107 174.19140625 285.02734375 C174.61275368 283.76012016 175.03380748 282.49279891 175.45458984 281.22538757 C176.5827397 277.83255005 177.71733415 274.44190335 178.85393143 271.05188751 C179.56752786 268.92249672 180.27954668 266.79258407 180.99118042 264.66253662 C188.65453215 241.73403247 196.58813808 218.91169829 204.73658752 196.15083313 C208.78198496 184.8386289 212.74859137 173.49886828 216.71850586 162.16000366 C223.63837629 142.39654917 230.59107405 122.64513502 237.59207153 102.91027832 C243.40162036 86.53323132 249.17574072 70.14391762 254.9375 53.75 C261.2411433 35.8148249 267.57933796 17.8936483 274 0 C293.14 0 312.28 0 332 0 C332 133.65 332 267.3 332 405 C317.81 405 303.62 405 289 405 C288.90863435 371.39593236 288.83746446 337.79191301 288.79573868 304.18774794 C288.79073879 300.17586496 288.78556122 296.16398222 288.78027344 292.15209961 C288.7792242 291.3537612 288.77817495 290.55542278 288.77709392 289.7328923 C288.75992134 276.98544367 288.72851957 264.2380709 288.69138882 251.49066655 C288.6533204 238.30648345 288.63162936 225.12233865 288.62364602 211.9381029 C288.61875818 204.57661784 288.60741761 197.21528883 288.57707977 189.85386086 C288.4255958 151.97431275 289.59184937 114.34313482 292.04107666 76.53862 C292.12219019 75.2818029 292.20330373 74.02498581 292.28687525 72.73008335 C292.68714491 66.78751776 293.17682807 60.89943751 294 55 C293.34 55 292.68 55 292 55 C291.87088226 55.71514771 291.74176453 56.43029541 291.60873413 57.16711426 C291.00355875 59.98343852 290.19580436 62.60278939 289.26025391 65.32617188 C288.90044937 66.37812744 288.54064484 67.43008301 288.16993713 68.51391602 C287.7761235 69.65401123 287.38230988 70.79410645 286.9765625 71.96875 C286.56385605 73.17072021 286.1511496 74.37269043 285.72593689 75.61108398 C284.59923099 78.89050761 283.46781619 82.16828728 282.33494949 85.44558716 C281.62134627 87.51057295 280.90880329 89.57592197 280.19650269 91.64135742 C271.4894597 116.88066332 262.55147143 142.03331239 253.47607422 167.14257812 C251.0905925 173.74457282 248.71623259 180.35053562 246.34346199 186.95710754 C236.61598164 214.03761954 226.7895915 241.07785572 216.80609131 268.0652771 C210.49727025 285.12491041 204.31789392 302.22527919 198.25613403 319.37417603 C184.8498198 357.30036039 184.8498198 357.30036039 182 363 C171.11 363 160.22 363 149 363 C141.7469673 344.16376583 134.79212214 325.23453286 127.9375 306.25 C126.09021473 301.13398054 124.24278415 296.01801373 122.39453125 290.90234375 C122.16504728 290.26714373 121.93556332 289.6319437 121.69912529 288.97749519 C117.21673472 276.57354019 112.68231458 264.1890994 108.125 251.8125 C98.65549507 226.0872977 89.24277572 200.34153224 79.85838318 174.58517456 C77.63267821 168.47682352 75.40445956 162.36942578 73.16893005 156.2646637 C65.12368356 134.28145232 57.48774681 112.15861424 49.88793945 90.01831055 C44.04488722 72.9737022 44.04488722 72.9737022 38 56 C37.72582268 67.41080987 38.58461066 78.69228926 39.4375 90.0625 C42.63416589 133.20798692 43.15062042 176.257594 43.10139394 219.50737667 C43.09504205 226.053521 43.09454742 232.59966605 43.09336853 239.14581299 C43.09080317 250.0882603 43.08443774 261.03070072 43.07543945 271.97314453 C43.06619893 283.22216761 43.059151 294.47118871 43.05493164 305.72021484 C43.05466892 306.41867475 43.05440619 307.11713466 43.05413551 307.83676001 C43.05283006 311.34224205 43.05156645 314.8477241 43.05032361 318.35320616 C43.04002988 347.23547626 43.0216354 376.1177359 43 405 C28.81 405 14.62 405 0 405 C0 271.35 0 137.7 0 0 Z " fill="#944E24" transform="translate(1381,2844)"/>
<path d="M0 0 C15.18 0 30.36 0 46 0 C46.06793692 38.76953951 46.1215923 77.53906325 46.15319599 116.30865039 C46.15694773 120.89440635 46.16083074 125.48016219 46.16479492 130.06591797 C46.16558185 130.9787905 46.16636878 131.89166302 46.16717956 132.83219835 C46.18020389 147.57855245 46.20384121 162.32487117 46.23145839 177.07120433 C46.25959559 192.22250497 46.27619376 207.37378718 46.28226548 222.52511287 C46.28636475 231.86077587 46.29927242 241.19633883 46.3237494 250.53197101 C46.33970945 256.9493577 46.34437735 263.3666933 46.34050413 269.78409836 C46.33859841 273.47668036 46.34134519 277.16908859 46.35761642 280.86163902 C46.43826868 300.11837437 45.91966663 318.95995606 40.375 337.5625 C40.12339111 338.41835693 39.87178223 339.27421387 39.61254883 340.15600586 C35.17761668 354.53089318 28.73230663 367.49658893 19 379 C18.37738281 379.78375 17.75476562 380.5675 17.11328125 381.375 C4.06366167 397.13303119 -14.26369708 405.88827022 -34 410 C-35.5159375 410.33644531 -35.5159375 410.33644531 -37.0625 410.6796875 C-67.94002843 416.31483644 -104.90153941 411.68163837 -131.38671875 393.80078125 C-134.35100659 391.62595803 -137.19062836 389.3709148 -140 387 C-141.30710937 385.90171875 -141.30710937 385.90171875 -142.640625 384.78125 C-153.87023153 374.9984026 -165.98702563 362.38148384 -171 348 C-166.76567456 344.86894131 -162.52051688 341.75339011 -158.26416016 338.65234375 C-156.73035342 337.53299891 -155.1988419 336.4105034 -153.66943359 335.28515625 C-151.37033079 333.59637118 -149.06142205 331.92186956 -146.75 330.25 C-145.66054077 329.4441748 -145.66054077 329.4441748 -144.54907227 328.62207031 C-143.52704712 327.88875488 -143.52704712 327.88875488 -142.484375 327.140625 C-141.88334961 326.70266602 -141.28232422 326.26470703 -140.66308594 325.81347656 C-139 325 -139 325 -136 326 C-134.4921875 328.1171875 -134.4921875 328.1171875 -132.875 330.875 C-121.60203782 349.11971027 -106.03072777 363.34530738 -84.81201172 368.53515625 C-65.24594743 372.8429982 -44.18659296 370.66133943 -27 360 C-11.57671953 349.19573985 -6.21253285 331.30741603 -2.76171875 313.703125 C-1.14303333 304.29136896 -0.85005068 294.89569693 -0.84178162 285.3639679 C-0.83684364 284.13767062 -0.83190566 282.91137334 -0.82681805 281.64791554 C-0.81419615 278.27509062 -0.80585606 274.90230614 -0.79939139 271.52946723 C-0.79133072 267.88067132 -0.77765279 264.23189577 -0.76467896 260.58311462 C-0.74299596 254.27161108 -0.7248219 247.9601054 -0.70907402 241.64858437 C-0.68630047 232.5233376 -0.65816831 223.39811344 -0.62875474 214.27288594 C-0.58117022 199.465544 -0.53788147 184.65819278 -0.49731445 169.85083008 C-0.45791289 155.47224201 -0.41647559 141.09366216 -0.37231445 126.71508789 C-0.36822804 125.3842358 -0.36822804 125.3842358 -0.36405908 124.02649782 C-0.35037884 119.57522146 -0.33665872 115.12394523 -0.32291877 110.67266905 C-0.20909769 73.78179635 -0.10252301 36.89090571 0 0 Z " fill="#934D24" transform="translate(1127,2844)"/>
</svg>
